<svg width="33" height="42" viewBox="0 0 33 42" fill="none" xmlns="http://www.w3.org/2000/svg">
<path d="M1.05713 9.10697L21.8695 2.2807C22.1322 2.19454 22.4176 2.20942 22.6699 2.32244L31.1044 6.10056L9.57086 12.9383L1.05713 9.10697Z" fill="#69C0FF"/>
<path fill-rule="evenodd" clip-rule="evenodd" d="M30.6742 6.12561C31.5706 5.83577 32.4897 6.50385 32.4906 7.44592L32.5082 26.1461C32.5086 26.7484 32.1202 27.2826 31.5472 27.4684L19.515 31.3697C19.1737 31.4808 18.9411 31.7979 18.9388 32.1569L18.9037 38.3082C18.9 38.9079 18.5117 39.4378 17.9408 39.6217L11.3822 41.735C10.4858 42.0234 9.56795 41.3544 9.56775 40.4127V12.9508L9.75916 12.8883L30.6742 6.12561ZM24.9447 16.3707C24.9488 15.9925 24.5817 15.7211 24.2211 15.8356L18.7572 17.5699C18.5264 17.6432 18.3693 17.858 18.3695 18.1002L18.3744 23.6422C18.3748 24.0181 18.7409 24.2848 19.099 24.1705L24.4965 22.4459C24.7243 22.373 24.8795 22.1617 24.8822 21.9225L24.9447 16.3707Z" fill="#0050B3"/>
<path d="M18.37 18.1003C18.3698 17.8581 18.5265 17.6437 18.7573 17.5704L24.2213 15.8354C24.582 15.7208 24.9491 15.9926 24.9449 16.3711L24.8824 21.9227C24.8797 22.162 24.7241 22.3727 24.4961 22.4456L19.0994 24.1708C18.7412 24.2853 18.3751 24.0182 18.3747 23.6421L18.37 18.1003Z" fill="#1890FF"/>
<path d="M18.37 18.1003C18.3698 17.8581 18.5265 17.6437 18.7573 17.5704L24.2213 15.8354C24.582 15.7208 24.9491 15.9926 24.9449 16.3711L24.8824 21.9227C24.8797 22.162 24.7241 22.3727 24.4961 22.4456L19.0994 24.1708C18.7412 24.2853 18.3751 24.0182 18.3747 23.6421L18.37 18.1003Z" fill="url(#paint0_radial_10526_10928)"/>
<g filter="url(#filter0_f_10526_10928)">
<path d="M24.1636 15.1299C24.9707 14.989 25.7345 15.6149 25.7251 16.4609L25.6626 21.9316C25.656 22.5068 25.2817 23.0132 24.7339 23.1885L19.3364 24.9141C18.4754 25.189 17.596 24.5466 17.5952 23.6426L17.5903 18.1064C17.5898 17.5179 17.9745 16.9981 18.5376 16.8271L24.0015 15.168L24.1636 15.1299Z" stroke="#F4FFA3" stroke-width="1.56"/>
</g>
<path fill-rule="evenodd" clip-rule="evenodd" d="M4.93774 29.3474C4.93782 29.183 5.06002 29.1038 5.21021 29.1706L6.57056 29.7771C6.72085 29.844 6.84302 30.0315 6.84302 30.196V31.6853C6.84292 31.8497 6.72079 31.9289 6.57056 31.862L5.21021 31.2556C5.06001 31.1886 4.93774 31.0011 4.93774 30.8366V29.3474ZM2.39966 28.1745C2.39966 28.01 2.52183 27.9309 2.67212 27.9978L4.03247 28.6033C4.18269 28.6701 4.30482 28.8577 4.30493 29.0222V30.5115C4.30493 30.676 4.18276 30.7551 4.03247 30.6882L2.67212 30.0827C2.52187 30.0158 2.3997 29.8283 2.39966 29.6638V28.1745ZM2.39966 24.8376C2.39986 24.6735 2.52204 24.5942 2.67212 24.6609L4.03247 25.2673C4.18276 25.3342 4.30493 25.5217 4.30493 25.6863V27.1755C4.30493 27.34 4.18276 27.4192 4.03247 27.3523L2.67212 26.7468C2.52196 26.6799 2.39987 26.4923 2.39966 26.3279V24.8376ZM4.93774 22.6745C4.93797 22.5103 5.06005 22.4319 5.21021 22.4988L6.57056 23.1042C6.72085 23.1711 6.84302 23.3587 6.84302 23.5232V25.0124C6.84302 25.1769 6.72085 25.2561 6.57056 25.1892L5.21021 24.5837C5.06002 24.5169 4.93793 24.3292 4.93774 24.1648V22.6745ZM4.93774 19.3386C4.9378 19.1742 5.06 19.095 5.21021 19.1618L6.57056 19.7673C6.72085 19.8342 6.84302 20.0227 6.84302 20.1872V21.6765C6.84289 21.8408 6.72077 21.9201 6.57056 21.8533L5.21021 21.2468C5.06 21.1798 4.93774 20.9923 4.93774 20.8279V19.3386ZM2.39966 18.1658C2.39966 18.0012 2.52183 17.9221 2.67212 17.989L4.03247 18.5945C4.18271 18.6614 4.30484 18.8489 4.30493 19.0134V20.5027C4.30493 20.6672 4.18276 20.7463 4.03247 20.6794L2.67212 20.074C2.52187 20.0071 2.39972 19.8195 2.39966 19.655V18.1658ZM4.93774 16.0027C4.93774 15.8381 5.05991 15.759 5.21021 15.8259L6.57056 16.4314C6.72078 16.4983 6.8429 16.6859 6.84302 16.8503V18.3396C6.84302 18.5041 6.72085 18.5833 6.57056 18.5163L5.21021 17.9109C5.05997 17.8439 4.93778 17.6564 4.93774 17.4919V16.0027ZM2.39966 14.8288C2.39983 14.6646 2.52201 14.5853 2.67212 14.6521L4.03247 15.2585C4.18276 15.3254 4.30493 15.513 4.30493 15.6775V17.1667C4.30493 17.3312 4.18276 17.4104 4.03247 17.3435L2.67212 16.738C2.52197 16.6712 2.39989 16.4835 2.39966 16.3191V14.8288Z" fill="#141414"/>
<path fill-rule="evenodd" clip-rule="evenodd" d="M4.93774 29.3474C4.93782 29.183 5.06002 29.1038 5.21021 29.1706L6.57056 29.7771C6.72085 29.844 6.84302 30.0315 6.84302 30.196V31.6853C6.84292 31.8497 6.72079 31.9289 6.57056 31.862L5.21021 31.2556C5.06001 31.1886 4.93774 31.0011 4.93774 30.8366V29.3474ZM2.39966 28.1745C2.39966 28.01 2.52183 27.9309 2.67212 27.9978L4.03247 28.6033C4.18269 28.6701 4.30482 28.8577 4.30493 29.0222V30.5115C4.30493 30.676 4.18276 30.7551 4.03247 30.6882L2.67212 30.0827C2.52187 30.0158 2.3997 29.8283 2.39966 29.6638V28.1745ZM2.39966 24.8376C2.39986 24.6735 2.52204 24.5942 2.67212 24.6609L4.03247 25.2673C4.18276 25.3342 4.30493 25.5217 4.30493 25.6863V27.1755C4.30493 27.34 4.18276 27.4192 4.03247 27.3523L2.67212 26.7468C2.52196 26.6799 2.39987 26.4923 2.39966 26.3279V24.8376ZM4.93774 22.6745C4.93797 22.5103 5.06005 22.4319 5.21021 22.4988L6.57056 23.1042C6.72085 23.1711 6.84302 23.3587 6.84302 23.5232V25.0124C6.84302 25.1769 6.72085 25.2561 6.57056 25.1892L5.21021 24.5837C5.06002 24.5169 4.93793 24.3292 4.93774 24.1648V22.6745ZM4.93774 19.3386C4.9378 19.1742 5.06 19.095 5.21021 19.1618L6.57056 19.7673C6.72085 19.8342 6.84302 20.0227 6.84302 20.1872V21.6765C6.84289 21.8408 6.72077 21.9201 6.57056 21.8533L5.21021 21.2468C5.06 21.1798 4.93774 20.9923 4.93774 20.8279V19.3386ZM2.39966 18.1658C2.39966 18.0012 2.52183 17.9221 2.67212 17.989L4.03247 18.5945C4.18271 18.6614 4.30484 18.8489 4.30493 19.0134V20.5027C4.30493 20.6672 4.18276 20.7463 4.03247 20.6794L2.67212 20.074C2.52187 20.0071 2.39972 19.8195 2.39966 19.655V18.1658ZM4.93774 16.0027C4.93774 15.8381 5.05991 15.759 5.21021 15.8259L6.57056 16.4314C6.72078 16.4983 6.8429 16.6859 6.84302 16.8503V18.3396C6.84302 18.5041 6.72085 18.5833 6.57056 18.5163L5.21021 17.9109C5.05997 17.8439 4.93778 17.6564 4.93774 17.4919V16.0027ZM2.39966 14.8288C2.39983 14.6646 2.52201 14.5853 2.67212 14.6521L4.03247 15.2585C4.18276 15.3254 4.30493 15.513 4.30493 15.6775V17.1667C4.30493 17.3312 4.18276 17.4104 4.03247 17.3435L2.67212 16.738C2.52197 16.6712 2.39989 16.4835 2.39966 16.3191V14.8288Z" fill="url(#paint1_radial_10526_10928)"/>
<g filter="url(#filter1_f_10526_10928)">
<path d="M4.90881 29.0044C5.02944 28.9261 5.17239 28.9347 5.29163 28.9878L6.65198 29.5933C6.76979 29.6457 6.86582 29.7395 6.93127 29.8403C6.9967 29.9411 7.0426 30.0669 7.0426 30.1958V31.6851C7.04254 31.8154 6.99308 31.9495 6.87268 32.0278C6.75215 32.1061 6.60904 32.0974 6.48987 32.0444L5.12854 31.438C5.01101 31.3855 4.91558 31.2925 4.85022 31.1919C4.78477 31.0911 4.73792 30.9654 4.73792 30.8364V29.3472C4.73795 29.2167 4.78827 29.0827 4.90881 29.0044ZM2.37073 27.8315C2.49136 27.7532 2.6343 27.7619 2.75354 27.8149L4.11389 28.4204C4.2317 28.4729 4.32774 28.5667 4.39319 28.6675C4.45848 28.7682 4.50447 28.8932 4.50452 29.022V30.5112C4.50452 30.6416 4.45486 30.7756 4.33459 30.854C4.214 30.9323 4.07099 30.9236 3.95178 30.8706L2.59045 30.2651C2.47279 30.2127 2.37753 30.1188 2.31213 30.0181C2.24679 29.9174 2.19986 29.7924 2.19983 29.6636V28.1743C2.19983 28.0439 2.25026 27.9099 2.37073 27.8315ZM2.37073 24.4946C2.49132 24.4163 2.63434 24.425 2.75354 24.478L4.11389 25.0845C4.23167 25.1369 4.32774 25.2298 4.39319 25.3306C4.45864 25.4314 4.50452 25.5571 4.50452 25.686V27.1753C4.50452 27.3057 4.45497 27.4397 4.33459 27.5181C4.21405 27.5964 4.07097 27.5877 3.95178 27.5347L2.59045 26.9292C2.47273 26.8767 2.37755 26.7829 2.31213 26.6821C2.24676 26.5815 2.19994 26.4564 2.19983 26.3276V24.8374C2.19992 24.707 2.2502 24.5729 2.37073 24.4946ZM4.90881 22.3315C5.02939 22.2533 5.17244 22.2619 5.29163 22.3149L6.65198 22.9214C6.76974 22.9738 6.86583 23.0667 6.93127 23.1675C6.99672 23.2683 7.0426 23.394 7.0426 23.5229V25.0122C7.0426 25.1426 6.99306 25.2766 6.87268 25.355C6.75211 25.4333 6.60906 25.4246 6.48987 25.3716L5.12854 24.7661C5.01084 24.7136 4.91562 24.6198 4.85022 24.519C4.78486 24.4184 4.73801 24.2933 4.73792 24.1646V22.6743C4.73802 22.5439 4.7883 22.4098 4.90881 22.3315ZM4.90881 18.9956C5.02945 18.9173 5.17239 18.9259 5.29163 18.979L6.65198 19.5845C6.76979 19.6369 6.86582 19.7308 6.93127 19.8315C6.99669 19.9323 7.0426 20.0581 7.0426 20.187V21.6763C7.04253 21.8066 6.99308 21.9407 6.87268 22.019C6.75216 22.0973 6.60904 22.0886 6.48987 22.0356L5.12854 21.4292C5.01102 21.3767 4.91558 21.2837 4.85022 21.1831C4.78477 21.0823 4.73792 20.9566 4.73792 20.8276V19.3384C4.73793 19.2079 4.78827 19.0739 4.90881 18.9956ZM2.37073 17.8228C2.49136 17.7444 2.6343 17.7531 2.75354 17.8062L4.11389 18.4116C4.2317 18.4641 4.32774 18.5579 4.39319 18.6587C4.45848 18.7594 4.50448 18.8844 4.50452 19.0132V20.5024C4.50452 20.6328 4.45487 20.7668 4.33459 20.8452C4.21401 20.9235 4.07099 20.9148 3.95178 20.8618L2.59045 20.2563C2.47278 20.2039 2.37753 20.11 2.31213 20.0093C2.24678 19.9086 2.19987 19.7836 2.19983 19.6548V18.1655C2.19983 18.0351 2.25027 17.9011 2.37073 17.8228ZM4.90881 15.6597C5.02945 15.5813 5.17239 15.59 5.29163 15.6431L6.65198 16.2485C6.76979 16.301 6.86582 16.3948 6.93127 16.4956C6.99657 16.5963 7.04256 16.7214 7.0426 16.8501V18.3394C7.0426 18.4697 6.99296 18.6037 6.87268 18.6821C6.75208 18.7604 6.60908 18.7518 6.48987 18.6987L5.12854 18.0933C5.01089 18.0408 4.9156 17.9469 4.85022 17.8462C4.78488 17.7455 4.73794 17.6205 4.73792 17.4917V16.0024C4.73792 15.872 4.78836 15.738 4.90881 15.6597ZM2.37073 14.4858C2.49134 14.4075 2.63433 14.4162 2.75354 14.4692L4.11389 15.0757C4.23169 15.1281 4.32774 15.221 4.39319 15.3218C4.45864 15.4226 4.50452 15.5483 4.50452 15.6772V17.1665C4.5045 17.2969 4.45497 17.4309 4.33459 17.5093C4.21405 17.5876 4.07096 17.5789 3.95178 17.5259L2.59045 16.9204C2.47273 16.8679 2.37755 16.7741 2.31213 16.6733C2.24668 16.5726 2.19983 16.4468 2.19983 16.3179V14.8286C2.19991 14.6982 2.25019 14.5641 2.37073 14.4858Z" stroke="#F4FFA3" stroke-width="0.4"/>
</g>
<path d="M3.08252 34.5147C3.08334 33.7314 3.66389 33.3551 4.37975 33.6739L4.48298 33.7198C5.20041 34.0392 5.78161 34.9355 5.78021 35.7202L5.77326 39.6122L3.07841 38.4458L3.08252 34.5147Z" fill="#0050B3"/>
<defs>
<filter id="filter0_f_10526_10928" x="12.81" y="10.3292" width="17.6949" height="19.4294" filterUnits="userSpaceOnUse" color-interpolation-filters="sRGB">
<feFlood flood-opacity="0" result="BackgroundImageFix"/>
<feBlend mode="normal" in="SourceGraphic" in2="BackgroundImageFix" result="shape"/>
<feGaussianBlur stdDeviation="2" result="effect1_foregroundBlur_10526_10928"/>
</filter>
<filter id="filter1_f_10526_10928" x="0" y="12.2284" width="9.24304" height="22.0569" filterUnits="userSpaceOnUse" color-interpolation-filters="sRGB">
<feFlood flood-opacity="0" result="BackgroundImageFix"/>
<feBlend mode="normal" in="SourceGraphic" in2="BackgroundImageFix" result="shape"/>
<feGaussianBlur stdDeviation="1" result="effect1_foregroundBlur_10526_10928"/>
</filter>
<radialGradient id="paint0_radial_10526_10928" cx="0" cy="0" r="1" gradientUnits="userSpaceOnUse" gradientTransform="translate(21.6616 19.9781) rotate(90) scale(6.2167 6.15205)">
<stop stop-color="#F5F5F5"/>
<stop offset="1" stop-color="#F4FFA3"/>
</radialGradient>
<radialGradient id="paint1_radial_10526_10928" cx="0" cy="0" r="1" gradientTransform="matrix(-0.051978 7.45235 -1.9188 -0.0133789 4.67332 24.4334)" gradientUnits="userSpaceOnUse">
<stop stop-color="#F4FFA3"/>
<stop offset="0.754808" stop-color="#F5F5F5"/>
</radialGradient>
</defs>
</svg>
